<?xml version="1.0" standalone="no"?>
<!DOCTYPE svg PUBLIC "-//W3C//DTD SVG 20010904//EN"
 "http://www.w3.org/TR/2001/REC-SVG-20010904/DTD/svg10.dtd">
<svg version="1.0" xmlns="http://www.w3.org/2000/svg"
 width="984.000000pt" height="984.000000pt" viewBox="0 0 984.000000 984.000000"
 preserveAspectRatio="xMidYMid meet">
<metadata>
Created by potrace 1.14, written by Peter Selinger 2001-2017
</metadata>
<g transform="translate(0.000000,984.000000) scale(0.100000,-0.100000)"
fill="#000000" stroke="none">
<path d="M1751 8451 c-41 -5 -47 -11 -74 -56 -152 -257 -274 -703 -322 -1185
-22 -215 -30 -646 -16 -860 l11 -174 -80 -74 c-44 -40 -156 -158 -250 -262
-93 -103 -200 -216 -237 -250 -193 -177 -391 -289 -638 -360 -60 -18 -118 -35
-127 -39 -34 -12 195 -448 378 -722 52 -78 93 -143 92 -144 -4 -3 -309 32
-384 44 -52 8 -54 7 -49 -13 18 -62 165 -339 243 -456 117 -175 216 -293 394
-465 267 -260 558 -463 953 -666 396 -204 754 -343 1500 -583 385 -124 551
-183 655 -236 97 -49 113 -63 156 -136 102 -174 280 -311 489 -377 142 -44
213 -52 475 -52 262 0 333 8 475 52 209 66 387 203 489 377 45 78 63 92 188
151 110 51 260 104 743 260 969 314 1521 569 1999 924 200 148 424 358 572
536 106 128 240 338 319 500 99 203 98 194 33 184 -84 -13 -383 -48 -386 -45
-1 2 40 65 91 142 117 176 219 355 319 559 68 139 75 161 60 167 -9 3 -53 16
-97 28 -190 52 -383 145 -530 255 -112 84 -194 164 -375 365 -94 104 -206 222
-250 262 l-80 74 11 179 c14 218 6 639 -16 855 -48 480 -170 928 -322 1185
-27 47 -33 50 -79 57 -176 23 -500 -6 -744 -68 -339 -86 -700 -265 -965 -478
l-70 -56 -90 -1 c-49 0 -117 -4 -150 -8 -33 -5 -62 -6 -65 -3 -3 2 28 35 68
72 l73 67 -43 11 c-97 24 -227 34 -368 29 -247 -10 -467 -62 -722 -172 l-88
-37 -87 37 c-256 110 -476 162 -723 172 -141 5 -271 -5 -368 -29 l-43 -11 73
-67 c40 -37 71 -70 68 -72 -3 -3 -32 -2 -65 3 -33 4 -100 8 -150 8 l-90 1 -86
68 c-300 237 -683 415 -1059 491 -215 44 -491 62 -639 42z m514 -571 c146 -25
297 -75 440 -145 122 -60 294 -169 367 -234 l47 -41 -35 -75 c-21 -47 -39
-105 -46 -153 -11 -78 -5 -152 13 -152 5 0 45 18 88 39 93 47 256 105 366 131
145 33 256 43 422 37 216 -8 387 -46 571 -128 36 -16 67 -28 69 -25 7 7 -37
146 -67 214 -18 38 -24 62 -17 62 25 0 168 -69 234 -113 38 -25 99 -73 136
-107 l67 -62 60 56 c111 102 266 197 362 221 l27 7 -24 -49 c-26 -54 -79 -222
-72 -229 2 -2 30 8 63 22 205 92 405 134 634 134 249 0 477 -52 709 -161 57
-27 108 -49 112 -49 16 0 21 94 10 162 -6 39 -27 104 -46 144 l-34 74 47 41
c130 115 396 262 587 324 122 40 306 75 395 75 l58 0 30 -127 c42 -178 49
-212 71 -348 47 -286 56 -397 56 -745 0 -345 -6 -418 -53 -664 -13 -71 -14
-90 -4 -94 28 -9 177 -126 254 -200 45 -42 142 -147 217 -232 331 -379 437
-475 614 -557 31 -15 57 -30 57 -35 0 -5 -22 -57 -48 -116 -87 -194 -208 -379
-349 -534 -71 -78 -233 -228 -245 -228 -5 0 -8 -4 -8 -9 0 -13 143 -67 215
-81 33 -6 96 -14 139 -18 l79 -7 -151 -147 c-216 -209 -492 -425 -694 -542
-52 -30 -55 -27 -38 33 34 119 42 405 16 578 -33 219 -104 448 -201 652 -30
62 -55 115 -55 117 0 2 18 -3 40 -11 68 -24 195 -94 239 -131 38 -33 41 -34
41 -14 0 44 -41 221 -71 307 -42 119 -136 299 -214 408 -88 123 -242 293 -347
382 l-86 74 -124 -25 c-489 -99 -990 -324 -1261 -567 -69 -62 -76 -58 -79 46
-8 248 27 493 103 730 15 49 26 91 24 94 -12 11 -150 -97 -227 -177 -99 -103
-161 -194 -225 -328 l-46 -98 -27 109 c-56 227 -174 518 -312 770 -65 119
-210 355 -218 355 -8 0 -153 -236 -218 -355 -138 -252 -256 -543 -311 -769
l-27 -108 -56 113 c-66 134 -131 227 -230 327 -69 70 -203 171 -213 161 -2 -3
9 -45 24 -94 76 -237 111 -482 103 -730 -3 -101 -11 -108 -65 -58 -269 248
-774 477 -1276 579 -121 24 -124 25 -145 7 -144 -127 -203 -184 -283 -278
-212 -246 -339 -491 -393 -755 -11 -54 -20 -108 -20 -120 0 -20 3 -19 41 13
22 20 71 51 107 70 73 39 172 80 172 72 0 -3 -18 -41 -40 -85 -89 -177 -166
-408 -205 -616 -35 -189 -35 -468 0 -621 8 -35 15 -69 15 -75 0 -24 -270 157
-458 307 -73 59 -201 173 -284 253 l-151 147 79 7 c43 4 106 12 139 18 72 14
215 68 215 81 0 5 -4 9 -8 9 -12 0 -173 150 -246 230 -139 152 -262 338 -348
532 -26 59 -48 111 -48 115 0 5 35 26 78 46 158 77 263 171 526 471 230 261
351 381 467 458 45 31 78 60 79 70 0 9 -6 47 -14 85 -40 190 -51 333 -51 653
0 191 5 358 13 425 30 259 64 459 114 668 l30 127 58 0 c32 0 111 -9 175 -20z
m1205 -3026 c58 -35 81 -125 46 -179 -74 -112 -236 -66 -236 68 0 44 4 53 39
88 33 33 45 39 81 39 23 0 54 -7 70 -16z m3057 -28 c98 -107 -31 -271 -154
-196 -64 39 -85 115 -48 177 28 47 62 64 119 60 42 -4 55 -10 83 -41z m-2612
-401 c-34 -128 -127 -233 -239 -271 -70 -24 -185 -15 -251 18 -85 44 -177 159
-199 251 -8 35 -1 34 45 -8 172 -155 471 -134 621 44 18 22 35 38 37 35 2 -2
-4 -33 -14 -69z m2125 -45 c163 -105 391 -90 529 35 46 42 53 43 45 8 -22 -92
-114 -207 -199 -251 -60 -30 -180 -42 -241 -22 -109 35 -207 138 -244 257 -29
93 -25 102 20 51 22 -25 62 -60 90 -78z m-1673 52 c45 -65 71 -128 98 -236 24
-96 51 -292 59 -433 l4 -82 -69 -21 c-39 -11 -78 -29 -88 -39 -17 -17 -46
-109 -77 -249 -9 -37 -18 -123 -21 -191 l-6 -123 29 -24 c108 -90 270 -176
419 -220 129 -39 282 -39 410 0 152 46 311 129 419 220 l29 24 -6 123 c-3 68
-12 154 -21 191 -31 140 -60 232 -77 249 -10 10 -50 28 -88 39 l-70 22 5 91
c18 317 85 580 174 686 24 28 33 22 50 -34 37 -119 208 -432 338 -620 95 -137
229 -310 335 -432 l102 -118 -1 -130 c0 -156 -17 -232 -79 -360 -78 -160 -191
-275 -357 -361 -150 -77 -356 -115 -638 -117 -568 -5 -786 -1 -918 17 -171 24
-258 48 -360 100 -166 86 -279 201 -357 361 -62 128 -79 204 -79 360 l-1 130
95 110 c329 379 586 787 693 1098 10 26 19 21 54 -31z m678 -2408 c138 -23
377 -23 469 -1 38 10 71 15 73 13 7 -6 -51 -88 -88 -125 -123 -123 -260 -161
-583 -161 -302 0 -447 38 -558 145 -48 46 -113 133 -105 141 2 2 35 -3 73 -13
96 -23 351 -21 489 5 55 10 107 18 115 16 8 -2 60 -11 115 -20z"/>
<path d="M2187 7673 c-5 -9 -30 -109 -46 -188 -20 -99 -47 -315 -39 -315 2 0
25 42 52 93 74 143 62 137 148 82 79 -51 178 -132 178 -146 0 -4 -21 -18 -46
-31 -61 -30 -166 -127 -213 -197 -43 -63 -74 -121 -69 -127 2 -2 35 6 73 18
68 21 196 30 210 16 4 -4 -17 -35 -48 -68 -68 -73 -138 -210 -167 -324 -32
-128 -28 -139 26 -67 59 78 167 177 270 247 74 49 186 112 224 126 19 7 -46
78 -108 118 l-43 28 76 31 c42 18 114 37 161 44 l86 13 -70 89 c-182 235 -370
411 -568 530 -58 35 -79 42 -87 28z"/>
<path d="M7566 7645 c-199 -120 -383 -291 -568 -530 l-70 -89 86 -13 c47 -7
119 -26 161 -44 l76 -31 -43 -28 c-62 -40 -127 -111 -108 -118 8 -3 49 -23 90
-45 154 -81 319 -215 404 -328 54 -72 58 -61 26 67 -29 114 -99 251 -167 324
-31 33 -52 64 -48 68 14 14 142 5 210 -16 38 -12 71 -20 73 -18 6 7 -28 67
-74 132 -55 78 -135 151 -208 190 l-57 31 58 50 c57 50 190 143 204 143 3 0
32 -47 64 -105 31 -58 59 -105 62 -105 12 0 -37 322 -65 430 -11 39 -23 66
-32 68 -9 1 -42 -13 -74 -33z"/>
</g>
</svg>
